<svg xmlns="http://www.w3.org/2000/svg" viewBox="0 0 64 64" id="temperature"><path fill="#f7941e" d="M30.6455,15.5083l-2.23-5.0522a1,1,0,0,0-1.83,0L24.64,14.8613l-3.833-2.9263a1,1,0,0,0-1.6025.8828L19.6621,18,14.498,17.436a1,1,0,0,0-.916,1.5845l2.8457,3.8916-4.4521,1.8545a1,1,0,0,0-.0381,1.83l4.7119,2.1973L13.583,32.979a1,1,0,0,0,.915,1.585L19.292,34.04l-.623,4.7808a1,1,0,0,0,1.5645.9487l4.2539-2.9771,2.0977,4.7515a1,1,0,0,0,1.83,0l2.2363-5.0654A.9963.9963,0,0,0,31,35.72V16.29A.9839.9839,0,0,0,30.6455,15.5083Z"></path><path fill="#f9d641" d="M30.3838,19.0767a7.5,7.5,0,1,0,0,13.8467A1,1,0,0,0,31,32V20A1,1,0,0,0,30.3838,19.0767Z"></path><path fill="#00aeef" d="M43,42.5234V9a7.0082,7.0082,0,0,0-7-7,7.0125,7.0125,0,0,0-6.9648,6.2881A7.0567,7.0567,0,0,0,29,9V42.5239a10.892,10.892,0,0,0-3.8916,10.0205A11,11,0,0,0,47,51,10.8827,10.8827,0,0,0,43,42.5234Z"></path><path fill="#00aeef" d="M52 43H46a1 1 0 0 1 0-2h6a1 1 0 0 1 0 2zM50 39H46a1 1 0 0 1 0-2h4a1 1 0 0 1 0 2zM52 35H46a1 1 0 0 1 0-2h6a1 1 0 0 1 0 2zM50 31H46a1 1 0 0 1 0-2h4a1 1 0 0 1 0 2zM52 27H46a1 1 0 0 1 0-2h6a1 1 0 0 1 0 2zM50 23H46a1 1 0 0 1 0-2h4a1 1 0 0 1 0 2zM52 19H46a1 1 0 0 1 0-2h6a1 1 0 0 1 0 2zM50 15H46a1 1 0 0 1 0-2h4a1 1 0 0 1 0 2zM52 11H46a1 1 0 0 1 0-2h6a1 1 0 0 1 0 2zM50 7H46a1 1 0 0 1 0-2h4a1 1 0 0 1 0 2z"></path><path fill="#ed1c24" d="M40,51a4,4,0,1,1-6-3.46V9a2,2,0,0,1,2-2h0a2,2,0,0,1,2,2V47.54A3.98,3.98,0,0,1,40,51Z"></path></svg>